<svg version="1.1" xmlns="http://www.w3.org/2000/svg" viewBox="0 0 2092.7777777777774 1832.0000000000002" width="2092.7777777777774" height="1832.0000000000002">
  <!-- svg-source:excalidraw -->
  
  <defs>
    <style class="style-fonts">
      @font-face {
        font-family: "Virgil";
        src: url("https://excalidraw.com/Virgil.woff2");
      }
      @font-face {
        font-family: "Cascadia";
        src: url("https://excalidraw.com/Cascadia.woff2");
      }
    </style>
  </defs>
  <rect x="0" y="0" width="2092.7777777777774" height="1832.0000000000002" fill="#ffffff"></rect><g mask="url(#mask-HIW-DNIXJRm17V_iw0bOp)" stroke-linecap="round"><g transform="translate(984.3945305620258 103.34780278908772) rotate(0 92.75820204592623 -0.48468233083542067)"><path d="M-0.77 0.26 C30.47 0.15, 155.19 -1.1, 186.28 -1.22 M1.03 -0.66 C32.18 -0.59, 153.97 -0.41, 185.16 -0.18" stroke="#000000" stroke-width="1" fill="none"></path></g><g transform="translate(984.3945305620258 103.34780278908772) rotate(0 92.75820204592623 -0.48468233083542067)"><path d="M157.36 9.43 C161.26 6.67, 168.33 5.21, 187.04 -0.68 M157.01 10.67 C164.85 6.31, 172.47 4.46, 184.64 -0.32" stroke="#000000" stroke-width="1" fill="none"></path></g><g transform="translate(984.3945305620258 103.34780278908772) rotate(0 92.75820204592623 -0.48468233083542067)"><path d="M157.44 -11.09 C161.22 -9.62, 168.28 -6.85, 187.04 -0.68 M157.09 -9.86 C164.78 -8.63, 172.38 -4.89, 184.64 -0.32" stroke="#000000" stroke-width="1" fill="none"></path></g></g><mask id="mask-HIW-DNIXJRm17V_iw0bOp"><rect x="0" y="0" fill="#fff" width="1271" height="203.6438448059288"></rect><rect x="1067.4861542122874" y="91.19978178066718" fill="#000" width="20.422222137451172" height="24" opacity="1"></rect></mask><g transform="translate(1067.4861542122876 91.19978178066718) rotate(0 9.666578395664658 11.663338677585125)"><text x="10.211111068725586" y="0" font-family="Virgil, Segoe UI Emoji" font-size="20px" fill="#000000" text-anchor="middle" style="white-space: pre;" direction="ltr" dominant-baseline="text-before-edge">no</text></g><g stroke-linecap="round" transform="translate(1195 28.54761904761861) rotate(0 136.5 53.5)"><path d="M26.75 0 M26.75 0 C94.64 0.34, 163.47 -1.75, 246.25 0 M26.75 0 C109.4 -0.85, 190.93 -0.36, 246.25 0 M246.25 0 C265.51 -1.51, 273.29 9.76, 273 26.75 M246.25 0 C264.64 -1.04, 272.33 10.76, 273 26.75 M273 26.75 C273.6 41.26, 272.04 54.56, 273 80.25 M273 26.75 C273.04 44.75, 273.54 63.51, 273 80.25 M273 80.25 C272.21 96.18, 265.78 105.23, 246.25 107 M273 80.25 C270.78 95.96, 265.29 108.71, 246.25 107 M246.25 107 C168.29 109.47, 90.17 108.33, 26.75 107 M246.25 107 C190.98 105.97, 136.97 107.5, 26.75 107 M26.75 107 C7.83 106.47, -0.98 98.47, 0 80.25 M26.75 107 C8.51 106.68, 1.32 98.24, 0 80.25 M0 80.25 C-1.23 66.55, 0.35 55.98, 0 26.75 M0 80.25 C0.88 62.7, 0.5 43.49, 0 26.75 M0 26.75 C0.02 10.88, 9.68 -0.77, 26.75 0 M0 26.75 C1.77 10.72, 7.27 -1.83, 26.75 0" stroke="#000000" stroke-width="1" fill="none"></path></g><g transform="translate(1272.9555549621582 70.04761904761861) rotate(0 58.5444450378418 12)"><text x="58.5444450378418" y="0" font-family="Virgil, Segoe UI Emoji" font-size="20px" fill="#000000" text-anchor="middle" style="white-space: pre;" direction="ltr" dominant-baseline="text-before-edge">Go to sleep</text></g><g stroke-linecap="round" transform="translate(759.0000000000001 337.5476190476186) rotate(0 132.5 56)"><path d="M28 0 M28 0 C102.29 -0.07, 175.65 0.28, 237 0 M28 0 C91.63 1.24, 154.35 1.52, 237 0 M237 0 C256.32 -0.38, 265.96 9.94, 265 28 M237 0 C255.89 -1.66, 265.12 11.25, 265 28 M265 28 C265.58 46.08, 264.06 67.48, 265 84 M265 28 C265.3 46.85, 264.31 67.77, 265 84 M265 84 C263.29 101.62, 256.23 113.84, 237 112 M265 84 C263.98 100.94, 255.91 111.96, 237 112 M237 112 C175.97 113.2, 114.21 113.77, 28 112 M237 112 C168.92 113.73, 100.23 112.52, 28 112 M28 112 C7.7 113.32, -1.57 102.18, 0 84 M28 112 C10.05 113.03, -0.6 102.21, 0 84 M0 84 C1.42 71.13, -1.25 56.83, 0 28 M0 84 C-0.23 70.87, 0.37 57.76, 0 28 M0 28 C1.52 10.67, 8.35 0.78, 28 0 M0 28 C-2.02 9.56, 11.38 1.25, 28 0" stroke="#000000" stroke-width="1" fill="none"></path></g><g transform="translate(816.0000000000001 383.5476190476186) rotate(0 53.82777786254883 12)"><text x="0" y="0" font-family="Virgil, Segoe UI Emoji" font-size="20px" fill="#000000" text-anchor="start" style="white-space: pre;" direction="ltr" dominant-baseline="text-before-edge">Record File</text></g><g mask="url(#mask-X0E7bbH2gr4Dv1cTMHbRg)" stroke-linecap="round"><g transform="translate(884.1519321181682 239.12721087046788) rotate(0 -0.23744160186026875 41.60502003373034)"><path d="M-1.05 0.12 C-1.07 14.05, -0.62 70.32, -0.68 84.07 M0.6 -0.86 C0.57 12.68, -0.63 68.22, -1.07 82.29" stroke="#000000" stroke-width="1" fill="none"></path></g><g transform="translate(884.1519321181682 239.12721087046788) rotate(0 -0.23744160186026875 41.60502003373034)"><path d="M-10.41 55.63 C-7.02 61.57, -6.99 67.57, -0.59 81.47 M-11.47 53.84 C-7 62.18, -5.65 70.71, -1.43 81.71" stroke="#000000" stroke-width="1" fill="none"></path></g><g transform="translate(884.1519321181682 239.12721087046788) rotate(0 -0.23744160186026875 41.60502003373034)"><path d="M10.1 56.15 C8.35 61.78, 3.24 67.65, -0.59 81.47 M9.04 54.36 C7.36 62.49, 2.54 70.86, -1.43 81.71" stroke="#000000" stroke-width="1" fill="none"></path></g></g><mask id="mask-X0E7bbH2gr4Dv1cTMHbRg"><rect x="0" y="0" fill="#fff" width="985.9022504454255" height="422.5476190476186"></rect><rect x="867.6878838325304" y="268.8374149590432" fill="#000" width="31.177778244018555" height="24" opacity="1"></rect></mask><g transform="translate(867.6878838325305 268.83741495904326) rotate(0 16.226606683777618 11.894815945154988)"><text x="15.588889122009277" y="0" font-family="Virgil, Segoe UI Emoji" font-size="20px" fill="#000000" text-anchor="middle" style="white-space: pre;" direction="ltr" dominant-baseline="text-before-edge">yes</text></g><g stroke-linecap="round"><g transform="translate(883.8863658047636 458.5476190476186) rotate(0 -1.5401150753696697 50.09138078153842)"><path d="M0.08 0.11 C-0.37 16.88, -1.53 84.5, -1.88 101.06 M-1.34 -0.88 C-2.06 15.53, -3.42 82.57, -3.11 99.46" stroke="#000000" stroke-width="1" fill="none"></path></g><g transform="translate(883.8863658047636 458.5476190476186) rotate(0 -1.5401150753696697 50.09138078153842)"><path d="M-13.06 70.32 C-7.77 80.32, -6.73 93.48, -3.08 97.64 M-13.36 70.91 C-10.67 80.25, -7.6 89.24, -3.49 99.51" stroke="#000000" stroke-width="1" fill="none"></path></g><g transform="translate(883.8863658047636 458.5476190476186) rotate(0 -1.5401150753696697 50.09138078153842)"><path d="M7.46 70.41 C5.27 80.39, -1.18 93.52, -3.08 97.64 M7.16 71 C3.28 80.45, -0.22 89.41, -3.49 99.51" stroke="#000000" stroke-width="1" fill="none"></path></g></g><mask></mask><g mask="url(#mask-r5yUwH4tX3GypeKCilz_F)" stroke-linecap="round"><g transform="translate(1019.0213272517731 688.2491455152314) rotate(0 85.98930960094572 1.7946410436945257)"><path d="M0.06 0.86 C28.51 1.24, 142.33 1.8, 171.1 2.03 M-1.37 0.27 C27.42 0.83, 144.41 2.79, 173.35 3.32" stroke="#000000" stroke-width="1" fill="none"></path></g><g transform="translate(1019.0213272517731 688.2491455152314) rotate(0 85.98930960094572 1.7946410436945257)"><path d="M146.42 11.62 C153.64 10.96, 163.45 8.49, 171.81 4.76 M144.14 13.37 C153.31 11.42, 159.36 7.68, 173.57 3.8" stroke="#000000" stroke-width="1" fill="none"></path></g><g transform="translate(1019.0213272517731 688.2491455152314) rotate(0 85.98930960094572 1.7946410436945257)"><path d="M146.78 -8.9 C153.84 -2.72, 163.53 1.63, 171.81 4.76 M144.5 -7.15 C153.63 -3.57, 159.59 -1.78, 173.57 3.8" stroke="#000000" stroke-width="1" fill="none"></path></g></g><mask id="mask-r5yUwH4tX3GypeKCilz_F"><rect x="0" y="0" fill="#fff" width="1291" height="790.7631627658657"></rect><rect x="1094.799552557161" y="677.5061541405486" fill="#000" width="20.422222137451172" height="24" opacity="1"></rect></mask><g transform="translate(1094.799552557161 677.5061541405485) rotate(0 10.211084295557725 12.537632418377427)"><text x="10.211111068725586" y="0" font-family="Virgil, Segoe UI Emoji" font-size="20px" fill="#000000" text-anchor="middle" style="white-space: pre;" direction="ltr" dominant-baseline="text-before-edge">no</text></g><g stroke-linecap="round" transform="translate(773.0000000000001 904.5476190476186) rotate(0 129.5 65.5)"><path d="M32 0 M32 0 C90.45 -1.47, 150.44 -0.04, 227 0 M32 0 C72.49 1.86, 112.73 1.29, 227 0 M227 0 C247.41 -1.58, 259.89 11.89, 259 32 M227 0 C247.84 -0.66, 260.79 11.42, 259 32 M259 32 C260.36 56.54, 257.66 82.31, 259 99 M259 32 C258.93 47.67, 259.4 62.25, 259 99 M259 99 C258.79 120.61, 248.15 130.7, 227 131 M259 99 C261.24 121.26, 248.79 129.64, 227 131 M227 131 C160.62 129.65, 89.62 129.21, 32 131 M227 131 C159.84 130.56, 92.11 130.82, 32 131 M32 131 C10.9 131.04, -0.09 119.31, 0 99 M32 131 C9.75 129.56, -0.2 118.52, 0 99 M0 99 C0.39 84.37, -1.53 67.82, 0 32 M0 99 C0.74 76.6, 0.82 56.15, 0 32 M0 32 C1.22 9.17, 9.76 -0.85, 32 0 M0 32 C-0.49 9.96, 10.3 -1.86, 32 0" stroke="#000000" stroke-width="1" fill="none"></path></g><g transform="translate(801.0000000000001 958.5476190476186) rotate(0 70.17778015136719 12)"><text x="0" y="0" font-family="Virgil, Segoe UI Emoji" font-size="20px" fill="#000000" text-anchor="start" style="white-space: pre;" direction="ltr" dominant-baseline="text-before-edge">Run the Model</text></g><g mask="url(#mask-eqID8rzxTrXP1ps9g7aIx)" stroke-linecap="round"><g transform="translate(906.3931763199602 818.1892278817298) rotate(0 -1.3028314189721755 36.12003403860467)"><path d="M0.19 -0.35 C0.01 11.71, -1.45 60.19, -1.69 72.31 M-1.17 -1.58 C-1.47 10.69, -2.67 61.27, -2.8 73.82" stroke="#000000" stroke-width="1" fill="none"></path></g><g transform="translate(906.3931763199602 818.1892278817298) rotate(0 -1.3028314189721755 36.12003403860467)"><path d="M-13.14 44.94 C-10.23 52.71, -7.69 59.43, -3.82 73.02 M-13.37 45.64 C-10.29 52.53, -7.95 58.31, -3.78 74.03" stroke="#000000" stroke-width="1" fill="none"></path></g><g transform="translate(906.3931763199602 818.1892278817298) rotate(0 -1.3028314189721755 36.12003403860467)"><path d="M7.38 45.31 C5.2 53.02, 2.65 59.64, -3.82 73.02 M7.15 46.01 C5.35 52.65, 2.82 58.34, -3.78 74.03" stroke="#000000" stroke-width="1" fill="none"></path></g></g><mask id="mask-eqID8rzxTrXP1ps9g7aIx"><rect x="0" y="0" fill="#fff" width="1007.7698311140956" height="990.5476190476187"></rect><rect x="890.1159598008833" y="842.3684234646743" fill="#000" width="31.177778244018555" height="24" opacity="1"></rect></mask><g transform="translate(890.115959800883 842.3684234646743) rotate(0 14.974385100104826 11.940838455660241)"><text x="15.588889122009277" y="0" font-family="Virgil, Segoe UI Emoji" font-size="20px" fill="#000000" text-anchor="middle" style="white-space: pre;" direction="ltr" dominant-baseline="text-before-edge">yes</text></g><g stroke-linecap="round"><g transform="translate(897.4341662600349 1046.5476190476186) rotate(0 0.14338100267241316 25.56379868456628)"><path d="M1.19 0.44 C1.08 8.99, -0.83 43.14, -1 51.5 M0.36 -0.37 C0.66 7.8, 1.4 40.96, 1.28 49.63" stroke="#000000" stroke-width="1" fill="none"></path></g><g transform="translate(897.4341662600349 1046.5476190476186) rotate(0 0.14338100267241316 25.56379868456628)"><path d="M-6.86 24.35 C-4.34 32.71, -3.46 38.33, -0.51 48.35 M-8.52 26.01 C-5.4 34.34, -0.72 41.56, 0.73 48.98" stroke="#000000" stroke-width="1" fill="none"></path></g><g transform="translate(897.4341662600349 1046.5476190476186) rotate(0 0.14338100267241316 25.56379868456628)"><path d="M10.58 24.24 C8.39 32.8, 4.55 38.45, -0.51 48.35 M8.92 25.9 C6.22 34.32, 5.08 41.57, 0.73 48.98" stroke="#000000" stroke-width="1" fill="none"></path></g></g><mask></mask><g stroke-linecap="round" transform="translate(775.0000000000001 1113.5476190476186) rotate(0 127.5 60.5)"><path d="M30.25 0 M30.25 0 C86.6 -3.07, 144.88 -2.79, 224.75 0 M30.25 0 C89.99 -1.37, 151.07 -0.95, 224.75 0 M224.75 0 C246.73 -0.41, 253.9 11.64, 255 30.25 M224.75 0 C245.99 -1.58, 254.21 10.62, 255 30.25 M255 30.25 C253.63 47.18, 257.15 66.71, 255 90.75 M255 30.25 C254.14 53.33, 255.55 76.78, 255 90.75 M255 90.75 C253.41 110.33, 245.24 122.99, 224.75 121 M255 90.75 C255.85 109.33, 245.87 121.69, 224.75 121 M224.75 121 C171.89 119.94, 122.79 119.89, 30.25 121 M224.75 121 C185.01 120.05, 143.84 118.69, 30.25 121 M30.25 121 C8.77 121.73, 0.31 111.28, 0 90.75 M30.25 121 C10.37 120.87, 1.37 111.42, 0 90.75 M0 90.75 C1.78 76.34, 0.49 64.71, 0 30.25 M0 90.75 C1.42 71.55, -0.41 52.36, 0 30.25 M0 30.25 C1.29 9.59, 10.66 1.94, 30.25 0 M0 30.25 C1.75 9.77, 10.14 0.1, 30.25 0" stroke="#000000" stroke-width="1" fill="none"></path></g><g transform="translate(821.0000000000001 1166.5476190476186) rotate(0 76.90555572509766 12)"><text x="0" y="0" font-family="Virgil, Segoe UI Emoji" font-size="20px" fill="#000000" text-anchor="start" style="white-space: pre;" direction="ltr" dominant-baseline="text-before-edge">Get Detections</text></g><g mask="url(#mask-CuTtjzZycClyXO7tbS1x4)" stroke-linecap="round"><g transform="translate(887.1942665801239 1522.3079241217367) rotate(0 -6.358768301629823 52.38113017882267)"><path d="M0.6 -0.58 C-1.39 16.74, -10.3 86.83, -12.29 104.28 M-0.54 1.73 C-2.68 19.15, -11.47 88.15, -13.32 105.34" stroke="#000000" stroke-width="1" fill="none"></path></g><g transform="translate(887.1942665801239 1522.3079241217367) rotate(0 -6.358768301629823 52.38113017882267)"><path d="M-21.14 75.88 C-19.73 85.4, -18.16 92.08, -14.36 105.88 M-20.71 75.2 C-17.06 87.39, -16.2 97.15, -13.66 106.05" stroke="#000000" stroke-width="1" fill="none"></path></g><g transform="translate(887.1942665801239 1522.3079241217367) rotate(0 -6.358768301629823 52.38113017882267)"><path d="M-0.76 78.31 C-4.9 87.27, -8.87 93.29, -14.36 105.88 M-0.33 77.63 C-4.19 88.93, -10.85 97.79, -13.66 106.05" stroke="#000000" stroke-width="1" fill="none"></path></g></g><mask id="mask-CuTtjzZycClyXO7tbS1x4"><rect x="0" y="0" fill="#fff" width="999.3329749500987" height="1727.4878333736194"></rect><rect x="865.5360232731272" y="1562.897878747678" fill="#000" width="31.177778244018555" height="24" opacity="1"></rect></mask><g transform="translate(865.5360232731271 1562.8978787476783) rotate(0 15.2994750053669 11.791175552881327)"><text x="15.588889122009277" y="0" font-family="Virgil, Segoe UI Emoji" font-size="20px" fill="#000000" text-anchor="middle" style="white-space: pre;" direction="ltr" dominant-baseline="text-before-edge">yes</text></g><g stroke-linecap="round"><g transform="translate(896.4760532794442 1235.5476190476186) rotate(0 -1.3705645786803302 31.17344295233488)"><path d="M-1.06 -1.15 C-1.53 9.49, -3.16 52.84, -3.32 63.5 M0.58 0.85 C0.55 11.17, -0.47 51.11, -0.97 61.64" stroke="#000000" stroke-width="1" fill="none"></path></g><g transform="translate(896.4760532794442 1235.5476190476186) rotate(0 -1.3705645786803302 31.17344295233488)"><path d="M-12.17 31.95 C-7.14 41.51, -5.94 46.98, -0.79 62.02 M-10.43 33.14 C-8.7 40.66, -6.06 47.38, -0.83 61.07" stroke="#000000" stroke-width="1" fill="none"></path></g><g transform="translate(896.4760532794442 1235.5476190476186) rotate(0 -1.3705645786803302 31.17344295233488)"><path d="M8.34 32.67 C8.15 41.86, 4.12 47.15, -0.79 62.02 M10.08 33.86 C6.39 41.09, 3.62 47.61, -0.83 61.07" stroke="#000000" stroke-width="1" fill="none"></path></g></g><mask></mask><g stroke-linecap="round" transform="translate(10 877.2142857142851) rotate(0 176 64.5)"><path d="M32 0 M32 0 C92.62 1.04, 153.74 1.18, 320 0 M32 0 C93.78 1.4, 155.6 2.19, 320 0 M320 0 C340.92 -1.96, 350.47 10.7, 352 32 M320 0 C339.53 0.53, 349.71 8.53, 352 32 M352 32 C350.66 48.63, 350.52 68.13, 352 97 M352 32 C352.63 54.29, 352.38 77.5, 352 97 M352 97 C350.35 117.9, 340.99 129.81, 320 129 M352 97 C350.43 118.54, 340.67 130.76, 320 129 M320 129 C251.89 129.09, 184.08 127.9, 32 129 M320 129 C223.64 128.71, 127.15 128.11, 32 129 M32 129 C10.7 130.78, -1.89 117.87, 0 97 M32 129 C12.16 130.29, -0.45 117.39, 0 97 M0 97 C1.49 74.75, -0.87 56.8, 0 32 M0 97 C-0.87 80.31, -0.15 62.94, 0 32 M0 32 C1.26 10.45, 10.38 -0.36, 32 0 M0 32 C0.41 11.02, 9.86 -1.22, 32 0" stroke="#000000" stroke-width="1" fill="none"></path></g><g transform="translate(49 936.2142857142851) rotate(0 143.0611114501953 12)"><text x="0" y="0" font-family="Virgil, Segoe UI Emoji" font-size="20px" fill="#000000" text-anchor="start" style="white-space: pre;" direction="ltr" dominant-baseline="text-before-edge">Send Local state to Remote</text></g><g stroke-linecap="round" transform="translate(720.9999999999997 1633.5476190476184) rotate(0 149.22222222222217 58.704173716864034)"><path d="M29.35 0 M29.35 0 C121.63 -0.98, 210.89 -1.97, 269.09 0 M29.35 0 C92.38 -0.53, 154.26 -0.85, 269.09 0 M269.09 0 C286.71 -1.75, 296.94 10.33, 298.44 29.35 M269.09 0 C289.55 -1.97, 300.6 10.26, 298.44 29.35 M298.44 29.35 C299.85 52.17, 299.53 73.86, 298.44 88.06 M298.44 29.35 C298.1 44.82, 298.72 58.36, 298.44 88.06 M298.44 88.06 C299.37 107.61, 290.64 118.09, 269.09 117.41 M298.44 88.06 C300.7 109.77, 286.79 116.65, 269.09 117.41 M269.09 117.41 C212.56 118.32, 160.42 118.38, 29.35 117.41 M269.09 117.41 C176.69 116.35, 83.57 115.77, 29.35 117.41 M29.35 117.41 C11.25 117.33, 0.19 106.79, 0 88.06 M29.35 117.41 C9.14 118.07, 1.15 106.51, 0 88.06 M0 88.06 C-1.35 71.29, -0.6 54.86, 0 29.35 M0 88.06 C-0.34 65.47, 0.89 45.23, 0 29.35 M0 29.35 C-1.97 8.72, 9.11 1.42, 29.35 0 M0 29.35 C0.57 8.75, 9.05 -2.04, 29.35 0" stroke="#000000" stroke-width="1" fill="none"></path></g><g transform="translate(778.3996365231557 1690.4422734312743) rotate(0 89.0888900756836 9)"><text x="0" y="0" font-family="Virgil, Segoe UI Emoji" font-size="15.149464184997175px" fill="#000000" text-anchor="start" style="white-space: pre;" direction="ltr" dominant-baseline="text-before-edge">Store Detection Locally</text></g><g mask="url(#mask-pil6ZBJyD-lNUtTUeaen8)" stroke-linecap="round"><g transform="translate(1013.8888888888881 1405.3155246062665) rotate(0 83.11894848714132 -2.1180885297230816)"><path d="M-0.43 0.53 C26.81 -0.39, 136.59 -4.07, 164.32 -4.77 M1.55 -0.24 C29.1 -1.04, 139.31 -2.43, 166.67 -3.3" stroke="#000000" stroke-width="1" fill="none"></path></g><g transform="translate(1013.8888888888881 1405.3155246062665) rotate(0 83.11894848714132 -2.1180885297230816)"><path d="M139.58 6.41 C148.85 5.18, 161.14 -1.3, 168.54 -3.94 M139.49 7.8 C144.1 5.39, 149.41 2.85, 167.25 -3.18" stroke="#000000" stroke-width="1" fill="none"></path></g><g transform="translate(1013.8888888888881 1405.3155246062665) rotate(0 83.11894848714132 -2.1180885297230816)"><path d="M139.15 -14.11 C148.71 -7.67, 161.16 -6.47, 168.54 -3.94 M139.06 -12.71 C143.74 -10.89, 149.13 -9.2, 167.25 -3.18" stroke="#000000" stroke-width="1" fill="none"></path></g></g><mask id="mask-pil6ZBJyD-lNUtTUeaen8"><rect x="0" y="0" fill="#fff" width="1278.8888888888882" height="1509.9355401434434"></rect><rect x="1086.1777778201626" y="1391.0055168376782" fill="#000" width="20.422222137451172" height="24" opacity="1"></rect></mask><g transform="translate(1086.1777778201626 1391.005516837678) rotate(0 10.830059555866796 12.191919238865239)"><text x="10.211111068725586" y="0" font-family="Virgil, Segoe UI Emoji" font-size="20px" fill="#000000" text-anchor="middle" style="white-space: pre;" direction="ltr" dominant-baseline="text-before-edge">no</text></g><g stroke-linecap="round" transform="translate(1758.3333333333326 981.3809523809529) rotate(0 162.22222222222229 57.222222222222285)"><path d="M28.61 0 M28.61 0 C135.82 1.01, 242.03 -1.22, 295.83 0 M28.61 0 C94.14 -1.59, 158.32 -1.83, 295.83 0 M295.83 0 C315.44 1.21, 325.34 8.86, 324.44 28.61 M295.83 0 C314.46 1.81, 324.28 8.95, 324.44 28.61 M324.44 28.61 C324.8 51.08, 324.58 75.26, 324.44 85.83 M324.44 28.61 C323.48 41.16, 324.52 52.2, 324.44 85.83 M324.44 85.83 C323.2 104.72, 316.37 115.77, 295.83 114.44 M324.44 85.83 C325.6 103.64, 315.58 113.74, 295.83 114.44 M295.83 114.44 C219.53 113.41, 143.12 113.64, 28.61 114.44 M295.83 114.44 C237.74 112.29, 180.53 112.4, 28.61 114.44 M28.61 114.44 C9.27 113.88, 1.64 104.36, 0 85.83 M28.61 114.44 C11.7 116.24, -0.67 105.15, 0 85.83 M0 85.83 C-0.06 67.94, -0.14 46.56, 0 28.61 M0 85.83 C0.67 73, -0.29 61.37, 0 28.61 M0 28.61 C1.1 9.47, 7.95 -1.4, 28.61 0 M0 28.61 C-0.23 7.52, 9.26 1.38, 28.61 0" stroke="#000000" stroke-width="1" fill="none"></path></g><g transform="translate(1810.8388883802622 1026.6031746031751) rotate(0 109.71666717529297 12)"><text x="109.71666717529297" y="0" font-family="Virgil, Segoe UI Emoji" font-size="20px" fill="#000000" text-anchor="middle" style="white-space: pre;" direction="ltr" dominant-baseline="text-before-edge">Store Recording to FS</text></g><g stroke-linecap="round" transform="translate(1776.8888888888882 1299.6587301587306) rotate(0 148.8888888888889 60.24122807017545)"><path d="M30.12 0 M30.12 0 C94.02 -0.19, 159.22 -1.29, 267.66 0 M30.12 0 C90.65 1.18, 151.7 1.49, 267.66 0 M267.66 0 C287.18 1.64, 297.23 11.92, 297.78 30.12 M267.66 0 C289.53 -0.67, 298.02 10.95, 297.78 30.12 M297.78 30.12 C299.87 49.5, 297.92 67.29, 297.78 90.36 M297.78 30.12 C297.71 42.34, 298.55 56.65, 297.78 90.36 M297.78 90.36 C297.71 108.85, 286.34 120.28, 267.66 120.48 M297.78 90.36 C295.77 110.16, 289.12 120.02, 267.66 120.48 M267.66 120.48 C184.34 121.6, 98.54 120.91, 30.12 120.48 M267.66 120.48 C189.29 122.02, 110.15 122.06, 30.12 120.48 M30.12 120.48 C9.88 120.41, 0.59 111.69, 0 90.36 M30.12 120.48 C11 120.11, -1.15 109.33, 0 90.36 M0 90.36 C1.05 67.11, 1.17 45.25, 0 30.12 M0 90.36 C-1.28 69.11, 0.42 47.5, 0 30.12 M0 30.12 C1.12 10.83, 10.97 0.93, 30.12 0 M0 30.12 C1.28 9.13, 10.55 1.98, 30.12 0" stroke="#000000" stroke-width="1" fill="none"></path></g><g transform="translate(1849.3742690058475 1352.5534670008358) rotate(0 72.43888854980469 10.200000000000045)"><text x="0" y="0" font-family="Virgil, Segoe UI Emoji" font-size="17.631578947368418px" fill="#000000" text-anchor="start" style="white-space: pre;" direction="ltr" dominant-baseline="text-before-edge">Delete Recording</text></g><g stroke-linecap="round"><g transform="translate(1029.9350031790082 1703.845527817131) rotate(0 69.40189984135066 -0.45548689115389607)"><path d="M0.66 -1.2 C24.04 -1.36, 116.05 -1.59, 139.26 -1.71 M-0.46 0.79 C22.88 0.89, 115.11 0.02, 138.46 -0.22" stroke="#000000" stroke-width="1" fill="none"></path></g><g transform="translate(1029.9350031790082 1703.845527817131) rotate(0 69.40189984135066 -0.45548689115389607)"><path d="M108.37 10.77 C116.28 9.48, 122.02 6.84, 139.28 1.61 M109.84 10.21 C121.65 6.28, 130.49 3.05, 138.2 0.73" stroke="#000000" stroke-width="1" fill="none"></path></g><g transform="translate(1029.9350031790082 1703.845527817131) rotate(0 69.40189984135066 -0.45548689115389607)"><path d="M108.18 -9.75 C116 -6.64, 121.78 -4.89, 139.28 1.61 M109.64 -10.31 C121.33 -6.71, 130.24 -2.42, 138.2 0.73" stroke="#000000" stroke-width="1" fill="none"></path></g></g><mask></mask><g mask="url(#mask-tsPKX9ePLT54zZBeN2ZG3)" stroke-linecap="round"><g transform="translate(1476.910247577458 1705.0000000000002) rotate(0 129.86276905094746 -329.76725178102936)"><path d="M-0.46 0.94 C42.95 -109.09, 216.9 -550.34, 260.19 -660.47 M1.49 0.38 C44.76 -109.48, 215.82 -549.52, 259.18 -659.36" stroke="#000000" stroke-width="1" fill="none"></path></g><g transform="translate(1476.910247577458 1705.0000000000002) rotate(0 129.86276905094746 -329.76725178102936)"><path d="M260.02 -629.57 C257.38 -639.39, 258.61 -645.71, 260.12 -661.25 M257.74 -629.52 C258.57 -637.83, 258.84 -647.75, 258.72 -658.63" stroke="#000000" stroke-width="1" fill="none"></path></g><g transform="translate(1476.910247577458 1705.0000000000002) rotate(0 129.86276905094746 -329.76725178102936)"><path d="M240.91 -637.05 C243.54 -644.72, 250.06 -648.98, 260.12 -661.25 M238.63 -637 C245.07 -643.18, 250.9 -650.93, 258.72 -658.63" stroke="#000000" stroke-width="1" fill="none"></path></g></g><mask id="mask-tsPKX9ePLT54zZBeN2ZG3"><rect x="0" y="0" fill="#fff" width="1837.2222222222217" height="2464.6561427511833"></rect><rect x="1591.4773457778304" y="1363.1719286244088" fill="#000" width="31.177778244018555" height="24" opacity="1"></rect></mask><g transform="translate(1591.4773457778308 1363.171928624409) rotate(0 15.29567085057488 12.060819594562076)"><text x="15.588889122009277" y="0" font-family="Virgil, Segoe UI Emoji" font-size="20px" fill="#000000" text-anchor="middle" style="white-space: pre;" direction="ltr" dominant-baseline="text-before-edge">yes</text></g><g mask="url(#mask-KptODkk2uREBrO8N4w9P-)" stroke-linecap="round"><g transform="translate(1459.313344573297 1711.6733387452507) rotate(0 149.55185593147417 -155.0070166958094)"><path d="M0.74 0.27 C50.34 -51.3, 247.69 -257.01, 297.27 -308.37 M-0.32 -0.64 C49.65 -52.06, 249.82 -258.76, 299.43 -310.28" stroke="#000000" stroke-width="1" fill="none"></path></g><g transform="translate(1459.313344573297 1711.6733387452507) rotate(0 149.55185593147417 -155.0070166958094)"><path d="M287.67 -284.63 C291.01 -290.77, 295.22 -299.29, 299.76 -312.22 M288.05 -282.44 C289.89 -290.52, 294.27 -297.49, 300.28 -310.3" stroke="#000000" stroke-width="1" fill="none"></path></g><g transform="translate(1459.313344573297 1711.6733387452507) rotate(0 149.55185593147417 -155.0070166958094)"><path d="M272.91 -298.89 C280.47 -301.17, 288.76 -305.74, 299.76 -312.22 M273.3 -296.7 C278.9 -301, 287.08 -304.3, 300.28 -310.3" stroke="#000000" stroke-width="1" fill="none"></path></g></g><mask id="mask-KptODkk2uREBrO8N4w9P-"><rect x="0" y="0" fill="#fff" width="1857.6299179717014" height="2120.4327247954525"></rect><rect x="1598.2605202037735" y="1545.29364572015" fill="#000" width="20.422222137451172" height="24" opacity="1"></rect></mask><g transform="translate(1598.2605202037735 1545.2936457201502) rotate(0 10.604680300997643 11.37267632929138)"><text x="10.211111068725586" y="0" font-family="Virgil, Segoe UI Emoji" font-size="20px" fill="#000000" text-anchor="middle" style="white-space: pre;" direction="ltr" dominant-baseline="text-before-edge">no</text></g><g mask="url(#mask-E-i6hz2q8NsDZd6aCUSvH)" stroke-linecap="round"><g transform="translate(1458.8350928908349 1413.1447435622256) rotate(0 151.16880547369556 -15.510152615776633)"><path d="M-0.79 -0.99 C49.58 -6.15, 252.46 -26.93, 303.12 -32.13 M1 1.11 C51.19 -3.73, 252.26 -25.18, 302.57 -30.5" stroke="#000000" stroke-width="1" fill="none"></path></g><g transform="translate(1458.8350928908349 1413.1447435622256) rotate(0 151.16880547369556 -15.510152615776633)"><path d="M273.97 -16.09 C286.22 -20.77, 296.27 -26.34, 301.35 -29.97 M275.79 -17.73 C282.97 -21.61, 290.42 -24.5, 303.53 -30.36" stroke="#000000" stroke-width="1" fill="none"></path></g><g transform="translate(1458.8350928908349 1413.1447435622256) rotate(0 151.16880547369556 -15.510152615776633)"><path d="M271.8 -36.49 C284.67 -33.45, 295.54 -31.3, 301.35 -29.97 M273.63 -38.13 C281.3 -36.08, 289.39 -33.03, 303.53 -30.36" stroke="#000000" stroke-width="1" fill="none"></path></g></g><mask id="mask-E-i6hz2q8NsDZd6aCUSvH"><rect x="0" y="0" fill="#fff" width="1861.2163742690054" height="1545.4460559945098"></rect><rect x="1599.8146225111946" y="1384.9940873460832" fill="#000" width="20.422222137451172" height="24" opacity="1"></rect></mask><g transform="translate(1599.8146225111946 1384.9940873460832) rotate(0 10.189275853335857 12.640503600365491)"><text x="10.211111068725586" y="0" font-family="Virgil, Segoe UI Emoji" font-size="20px" fill="#000000" text-anchor="middle" style="white-space: pre;" direction="ltr" dominant-baseline="text-before-edge">no</text></g><g mask="url(#mask-R5zsFmoGqgR-JzKpZw9Dr)" stroke-linecap="round"><g transform="translate(1459.7777777777774 1404.5985839521593) rotate(0 136.71298951092683 -181.5866382839605)"><path d="M-1.15 -0.58 C44.59 -61.19, 228.72 -302.52, 274.57 -363.08 M0.45 1.73 C46.05 -59.28, 228.42 -304.16, 273.87 -364.91" stroke="#000000" stroke-width="1" fill="none"></path></g><g transform="translate(1459.7777777777774 1404.5985839521593) rotate(0 136.71298951092683 -181.5866382839605)"><path d="M264.27 -335.4 C268.74 -345.31, 270.04 -355.69, 275.85 -363.46 M264.56 -335.31 C266.71 -344.79, 270.29 -353.81, 273.68 -365.21" stroke="#000000" stroke-width="1" fill="none"></path></g><g transform="translate(1459.7777777777774 1404.5985839521593) rotate(0 136.71298951092683 -181.5866382839605)"><path d="M247.82 -347.68 C257.5 -353.58, 263.95 -360.13, 275.85 -363.46 M248.11 -347.58 C255.24 -353.4, 263.74 -358.75, 273.68 -365.21" stroke="#000000" stroke-width="1" fill="none"></path></g></g><mask id="mask-R5zsFmoGqgR-JzKpZw9Dr"><rect x="0" y="0" fill="#fff" width="1833.8888888888885" height="1868.2467840081868"></rect><rect x="1581.2444442113235" y="1210.774483924146" fill="#000" width="31.177778244018555" height="24" opacity="1"></rect></mask><g transform="translate(1581.2444442113233 1210.7744839241454) rotate(0 15.24632307738068 12.237461744053121)"><text x="15.588889122009277" y="0" font-family="Virgil, Segoe UI Emoji" font-size="20px" fill="#000000" text-anchor="middle" style="white-space: pre;" direction="ltr" dominant-baseline="text-before-edge">yes</text></g><g mask="url(#mask-Wt-fB6SSRZaRDdDFnddUB)" stroke-linecap="round"><g transform="translate(1467.1111111111104 695.561061112732) rotate(0 136.64588771682907 181.03275579447308)"><path d="M0.73 1.09 C46.29 61.22, 228.04 300.35, 273.64 360.07 M-0.34 0.62 C45.05 60.99, 227.07 301.51, 272.79 361.45" stroke="#000000" stroke-width="1" fill="none"></path></g><g transform="translate(1467.1111111111104 695.561061112732) rotate(0 136.64588771682907 181.03275579447308)"><path d="M249.39 345.52 C255.09 351.71, 262.12 355.77, 273.72 360.28 M247.77 345.4 C253.55 348.87, 261.3 353.46, 272.74 362.09" stroke="#000000" stroke-width="1" fill="none"></path></g><g transform="translate(1467.1111111111104 695.561061112732) rotate(0 136.64588771682907 181.03275579447308)"><path d="M265.73 333.11 C266.1 343.39, 267.86 351.45, 273.72 360.28 M264.11 332.99 C265.73 339.62, 269.35 347.35, 272.74 362.09" stroke="#000000" stroke-width="1" fill="none"></path></g></g><mask id="mask-Wt-fB6SSRZaRDdDFnddUB"><rect x="0" y="0" fill="#fff" width="1840.555555555555" height="1155.9332441756023"></rect><rect x="1588.2444442113233" y="863.747152644167" fill="#000" width="31.177778244018555" height="24" opacity="1"></rect></mask><g transform="translate(1588.2444442113233 863.747152644167) rotate(0 15.512554616616171 12.846664263038008)"><text x="15.588889122009277" y="0" font-family="Virgil, Segoe UI Emoji" font-size="20px" fill="#000000" text-anchor="middle" style="white-space: pre;" direction="ltr" dominant-baseline="text-before-edge">yes</text></g><g mask="url(#mask-dySjZR1KpWUMZ9lMfY6fL)" stroke-linecap="round"><g transform="translate(1467.408628896906 693) rotate(0 148.11989728568028 345.94265839827096)"><path d="M0.56 -0.02 C49.51 115.45, 245.48 577.7, 294.46 692.97 M-0.61 -1.08 C48.67 114.01, 247.86 575.48, 296.85 691.06" stroke="#000000" stroke-width="1" fill="none"></path></g><g transform="translate(1467.408628896906 693) rotate(0 148.11989728568028 345.94265839827096)"><path d="M276.28 668.16 C284.51 675.99, 289.71 686.71, 298.78 690.2 M276.19 668.65 C282.54 675.29, 286.94 680.23, 296.85 690.91" stroke="#000000" stroke-width="1" fill="none"></path></g><g transform="translate(1467.408628896906 693) rotate(0 148.11989728568028 345.94265839827096)"><path d="M295.14 660.08 C296.51 670.95, 294.83 684.61, 298.78 690.2 M295.06 660.58 C296.55 669.22, 296.1 676.23, 296.85 690.91" stroke="#000000" stroke-width="1" fill="none"></path></g></g><mask id="mask-dySjZR1KpWUMZ9lMfY6fL"><rect x="0" y="0" fill="#fff" width="1862.4897660818706" height="1485.5510112762329"></rect><rect x="1604.738086420663" y="1027.2755056381163" fill="#000" width="20.422222137451172" height="24" opacity="1"></rect></mask><g transform="translate(1604.7380864206632 1027.2755056381166) rotate(0 10.790439761923608 11.667152760154522)"><text x="10.211111068725586" y="0" font-family="Virgil, Segoe UI Emoji" font-size="20px" fill="#000000" text-anchor="middle" style="white-space: pre;" direction="ltr" dominant-baseline="text-before-edge">no</text></g><g stroke-linecap="round" transform="translate(30.19841269841163 619.0000000000001) rotate(0 160.5 60)"><path d="M30 0 M30 0 C123.4 -1.52, 214.07 -1.08, 291 0 M30 0 C125.89 1.52, 221.23 1.84, 291 0 M291 0 C312.16 -1.9, 321.36 9.92, 321 30 M291 0 C309.13 0.6, 319.6 9.73, 321 30 M321 30 C321.56 48.7, 320.55 68.58, 321 90 M321 30 C320.16 49.3, 321.26 68.74, 321 90 M321 90 C319.27 110.14, 311.53 120.01, 291 120 M321 90 C318.95 110.79, 309.23 122.16, 291 120 M291 120 C222.67 117.63, 155.81 117.83, 30 120 M291 120 C206.38 117.28, 121.33 117.78, 30 120 M30 120 C11.23 118.89, -0.55 108.62, 0 90 M30 120 C9.13 120.92, -1.16 111.41, 0 90 M0 90 C-1.4 73.95, 0.33 57.62, 0 30 M0 90 C-0.05 77.57, 0.31 63.46, 0 30 M0 30 C1.68 8.44, 9.61 1.38, 30 0 M0 30 C0 8.59, 10.3 -1.41, 30 0" stroke="#000000" stroke-width="1" fill="none"></path></g><g transform="translate(85.19841269841163 669.0000000000001) rotate(0 91.80555725097656 12)"><text x="0" y="0" font-family="Virgil, Segoe UI Emoji" font-size="20px" fill="#000000" text-anchor="start" style="white-space: pre;" direction="ltr" dominant-baseline="text-before-edge">Should Send data?</text></g><g stroke-linecap="round"><g transform="translate(203.0465965750108 760) rotate(0 -2.119187002383903 47.72032481879006)"><path d="M0.46 -1.08 C-0.45 14.94, -3.98 80.51, -4.7 96.52 M-0.75 0.97 C-1.34 16.59, -1.69 78.87, -2.31 94.67" stroke="#000000" stroke-width="1" fill="none"></path></g><g transform="translate(203.0465965750108 760) rotate(0 -2.119187002383903 47.72032481879006)"><path d="M-13.79 65.24 C-7.5 76.96, -6.52 86.71, -0.56 95.1 M-12.3 66.59 C-8.51 77.65, -4.2 88.27, -2.99 94.58" stroke="#000000" stroke-width="1" fill="none"></path></g><g transform="translate(203.0465965750108 760) rotate(0 -2.119187002383903 47.72032481879006)"><path d="M6.73 65.67 C5.53 77.31, -0.99 86.9, -0.56 95.1 M8.21 67.01 C4.07 78.11, 0.44 88.56, -2.99 94.58" stroke="#000000" stroke-width="1" fill="none"></path></g></g><mask></mask><g stroke-linecap="round" transform="translate(773.1984126984117 10) rotate(0 97.5 108.00000000000001)"><path d="M122.5 27.25 M122.5 27.25 C137.63 43.89, 152.99 61.03, 170.5 81.75 M122.5 27.25 C138.5 46.11, 153.68 64.37, 170.5 81.75 M170.5 81.75 C194.51 109.97, 195.97 109.46, 170.5 136.25 M170.5 81.75 C197.1 111.17, 194.31 108.99, 170.5 136.25 M170.5 136.25 C157.99 151.47, 143.07 163.73, 122.5 188.75 M170.5 136.25 C154.58 152.85, 140.67 170.98, 122.5 188.75 M122.5 188.75 C96.15 217.09, 97.83 216.88, 73.5 188.75 M122.5 188.75 C100.05 215.15, 99.25 214.35, 73.5 188.75 M73.5 188.75 C63.15 175.22, 53.31 164.94, 24.5 136.25 M73.5 188.75 C57.67 170.58, 41.3 153.93, 24.5 136.25 M24.5 136.25 C-1.98 107.18, 1.25 108.29, 24.5 81.75 M24.5 136.25 C2.14 109.58, 0.56 109.03, 24.5 81.75 M24.5 81.75 C42.24 63.72, 58.16 45.32, 73.5 27.25 M24.5 81.75 C39.18 66.12, 53.36 49.02, 73.5 27.25 M73.5 27.25 C96.57 0.4, 99.75 -0.86, 122.5 27.25 M73.5 27.25 C99.09 -1.01, 98.06 -1.55, 122.5 27.25" stroke="#000000" stroke-width="1" fill="none"></path></g><g transform="translate(802.1984126984117 87) rotate(0 64.17222595214844 24)"><text x="0" y="0" font-family="Virgil, Segoe UI Emoji" font-size="20px" fill="#000000" text-anchor="start" style="white-space: pre;" direction="ltr" dominant-baseline="text-before-edge">Should File </text><text x="0" y="24" font-family="Virgil, Segoe UI Emoji" font-size="20px" fill="#000000" text-anchor="start" style="white-space: pre;" direction="ltr" dominant-baseline="text-before-edge">be Recorded?</text></g><g stroke-linecap="round" transform="translate(775.1984126984117 568) rotate(0 119.5 117.00000000000006)"><path d="M150 29.5 M150 29.5 C170.93 50.68, 189.82 67.51, 209 88.5 M150 29.5 C163.57 43.25, 178.62 57.66, 209 88.5 M209 88.5 C240.48 116.93, 239.97 118.77, 209 147.5 M209 88.5 C237.79 118.43, 238.6 118.08, 209 147.5 M209 147.5 C197.04 161.41, 180.71 173.04, 150 204.5 M209 147.5 C191.2 164.33, 174.44 181.63, 150 204.5 M150 204.5 C118.26 232.27, 118.88 235.14, 90 204.5 M150 204.5 C119.8 235.1, 117.82 232.46, 90 204.5 M90 204.5 C68.02 184.06, 45.95 162.55, 30 147.5 M90 204.5 C76.44 190.99, 62.39 177.27, 30 147.5 M30 147.5 C0.53 118.86, 1.26 116.63, 30 88.5 M30 147.5 C-0.68 116.16, 0.57 117.94, 30 88.5 M30 88.5 C47.14 69.49, 64.69 54.9, 90 29.5 M30 88.5 C52.74 66.72, 76.61 44.68, 90 29.5 M90 29.5 C118.96 -0.85, 120.86 -0.03, 150 29.5 M90 29.5 C122.04 0.53, 119.44 -0.57, 150 29.5" stroke="#000000" stroke-width="1" fill="none"></path></g><g transform="translate(823.1984126984117 645.0000000000001) rotate(0 71.9000015258789 36)"><text x="0" y="0" font-family="Virgil, Segoe UI Emoji" font-size="20px" fill="#000000" text-anchor="start" style="white-space: pre;" direction="ltr" dominant-baseline="text-before-edge">Should Run</text><text x="0" y="24" font-family="Virgil, Segoe UI Emoji" font-size="20px" fill="#000000" text-anchor="start" style="white-space: pre;" direction="ltr" dominant-baseline="text-before-edge">The Model?</text><text x="0" y="48" font-family="Virgil, Segoe UI Emoji" font-size="20px" fill="#000000" text-anchor="start" style="white-space: pre;" direction="ltr" dominant-baseline="text-before-edge">(Preprocessing)</text></g><g stroke-linecap="round" transform="translate(791.1984126984117 1292.0000000000002) rotate(0 105 105)"><path d="M132.5 26.5 M132.5 26.5 C149.16 45.6, 168.16 62.26, 183.5 79.5 M132.5 26.5 C145.24 40.06, 158.66 53.68, 183.5 79.5 M183.5 79.5 C208.57 107.47, 208.92 106.83, 183.5 132.5 M183.5 79.5 C208.42 107.36, 210.69 108.14, 183.5 132.5 M183.5 132.5 C166.52 147.43, 152.28 161.39, 132.5 183.5 M183.5 132.5 C165 150.9, 149.16 167.46, 132.5 183.5 M132.5 183.5 C104.2 210.21, 105.56 211.67, 79.5 183.5 M132.5 183.5 C104.45 209.62, 104.56 209.78, 79.5 183.5 M79.5 183.5 C62.12 168.09, 50.05 151.64, 26.5 132.5 M79.5 183.5 C69.22 173.01, 57.36 163.9, 26.5 132.5 M26.5 132.5 C1.33 106.36, 0.97 106.15, 26.5 79.5 M26.5 132.5 C2.11 105.73, -0.23 104.65, 26.5 79.5 M26.5 79.5 C42.58 62.53, 58.45 47.8, 79.5 26.5 M26.5 79.5 C42.41 63.56, 59.07 45.18, 79.5 26.5 M79.5 26.5 C106.56 1.68, 107.77 -0.41, 132.5 26.5 M79.5 26.5 C105.51 1.86, 104.5 1.36, 132.5 26.5" stroke="#000000" stroke-width="1" fill="none"></path></g><g transform="translate(832.1984126984117 1376.0000000000002) rotate(0 57.55555725097656 24)"><text x="0" y="0" font-family="Virgil, Segoe UI Emoji" font-size="20px" fill="#000000" text-anchor="start" style="white-space: pre;" direction="ltr" dominant-baseline="text-before-edge">Should Keep</text><text x="0" y="24" font-family="Virgil, Segoe UI Emoji" font-size="20px" fill="#000000" text-anchor="start" style="white-space: pre;" direction="ltr" dominant-baseline="text-before-edge">Detections?</text></g><g stroke-linecap="round" transform="translate(1201.6984126984116 576) rotate(0 119.5 117.00000000000006)"><path d="M150 29.5 M150 29.5 C164.83 44.79, 179.04 58.49, 209 88.5 M150 29.5 C167.9 47.11, 185.68 65.87, 209 88.5 M209 88.5 C237.17 117.42, 239.49 118.05, 209 147.5 M209 88.5 C237.68 119.04, 238.77 116.09, 209 147.5 M209 147.5 C193.81 159.18, 180.86 174.49, 150 204.5 M209 147.5 C193.54 161.23, 178.14 176.75, 150 204.5 M150 204.5 C120.61 234.29, 119.69 232.83, 90 204.5 M150 204.5 C118.95 232.21, 119.86 234.41, 90 204.5 M90 204.5 C76.84 191.25, 60.41 176.96, 30 147.5 M90 204.5 C73.81 187.88, 56.57 173.02, 30 147.5 M30 147.5 C-0.32 119.61, 1.64 116.14, 30 88.5 M30 147.5 C-1.49 117.12, -2.03 117.09, 30 88.5 M30 88.5 C42.72 76.73, 57.02 61.63, 90 29.5 M30 88.5 C49.36 68.17, 69.85 49.27, 90 29.5 M90 29.5 C119.42 1.58, 120.23 -1.27, 150 29.5 M90 29.5 C118.49 1.48, 120.19 1.07, 150 29.5" stroke="#000000" stroke-width="1" fill="none"></path></g><g transform="translate(1263.6984126984116 672) rotate(0 57.54999923706055 24)"><text x="0" y="0" font-family="Virgil, Segoe UI Emoji" font-size="20px" fill="#000000" text-anchor="start" style="white-space: pre;" direction="ltr" dominant-baseline="text-before-edge">Should Keep</text><text x="0" y="24" font-family="Virgil, Segoe UI Emoji" font-size="20px" fill="#000000" text-anchor="start" style="white-space: pre;" direction="ltr" dominant-baseline="text-before-edge">Recording?</text></g><g stroke-linecap="round" transform="translate(1201.6984126984116 1291.0000000000002) rotate(0 119.5 117)"><path d="M150 29.5 M150 29.5 C163.56 43.73, 177.61 59.14, 209 88.5 M150 29.5 C162.03 40.92, 175.5 53.24, 209 88.5 M209 88.5 C240.49 116.98, 238.04 118.97, 209 147.5 M209 88.5 C239.3 116.16, 239.61 116.53, 209 147.5 M209 147.5 C197.91 156.87, 183.99 169.08, 150 204.5 M209 147.5 C188.6 166.09, 169.43 186.22, 150 204.5 M150 204.5 C119.2 234.61, 121.13 235.67, 90 204.5 M150 204.5 C119.56 235.23, 121.49 232.09, 90 204.5 M90 204.5 C74.25 192.32, 59.56 178.9, 30 147.5 M90 204.5 C76.7 191.09, 64.02 179.77, 30 147.5 M30 147.5 C-1.79 117.12, -1.49 118.35, 30 88.5 M30 147.5 C-1.14 119.35, 1.57 119.7, 30 88.5 M30 88.5 C47.53 68.05, 68.67 51.75, 90 29.5 M30 88.5 C43.46 73.26, 58.8 59.27, 90 29.5 M90 29.5 C118.87 -1.98, 120.12 0.31, 150 29.5 M90 29.5 C121.39 0.65, 118.38 -0.84, 150 29.5" stroke="#000000" stroke-width="1" fill="none"></path></g><g transform="translate(1263.6984126984116 1387.0000000000002) rotate(0 57.54999923706055 24)"><text x="0" y="0" font-family="Virgil, Segoe UI Emoji" font-size="20px" fill="#000000" text-anchor="start" style="white-space: pre;" direction="ltr" dominant-baseline="text-before-edge">Should Keep</text><text x="0" y="24" font-family="Virgil, Segoe UI Emoji" font-size="20px" fill="#000000" text-anchor="start" style="white-space: pre;" direction="ltr" dominant-baseline="text-before-edge">Recording?</text></g><g stroke-linecap="round" transform="translate(1196.6984126984116 1588.0000000000002) rotate(0 119.5 117)"><path d="M150 29.5 M150 29.5 C165.55 45.91, 184.55 61.23, 209 88.5 M150 29.5 C164.24 43.92, 179.98 59, 209 88.5 M209 88.5 C238.71 119.6, 240.73 118.71, 209 147.5 M209 88.5 C239.96 119.16, 237.75 116.61, 209 147.5 M209 147.5 C189.59 163.65, 171.93 181, 150 204.5 M209 147.5 C192.09 163.1, 174.14 179.79, 150 204.5 M150 204.5 C120.79 233.26, 121.69 233.16, 90 204.5 M150 204.5 C118.92 236.02, 122.09 233.63, 90 204.5 M90 204.5 C70.3 188.52, 54.84 168.96, 30 147.5 M90 204.5 C69.74 183.57, 47.14 164.57, 30 147.5 M30 147.5 C-0.65 119.85, -1.05 116.18, 30 88.5 M30 147.5 C-1.81 117.79, 1.68 118.02, 30 88.5 M30 88.5 C47.55 69.25, 68.61 50.43, 90 29.5 M30 88.5 C51.38 67.29, 72.25 46.11, 90 29.5 M90 29.5 C120.67 0.09, 121.14 -1.48, 150 29.5 M90 29.5 C117.87 0.86, 122.16 1.01, 150 29.5" stroke="#000000" stroke-width="1" fill="none"></path></g><g transform="translate(1258.6984126984116 1684.0000000000002) rotate(0 57.54999923706055 24)"><text x="0" y="0" font-family="Virgil, Segoe UI Emoji" font-size="20px" fill="#000000" text-anchor="start" style="white-space: pre;" direction="ltr" dominant-baseline="text-before-edge">Should Keep</text><text x="0" y="24" font-family="Virgil, Segoe UI Emoji" font-size="20px" fill="#000000" text-anchor="start" style="white-space: pre;" direction="ltr" dominant-baseline="text-before-edge">Recording?</text></g></svg>